<svg width="125" height="125" viewBox="0 0 125 125" fill="none" xmlns="http://www.w3.org/2000/svg">
<circle cx="62.5" cy="62.5" r="62.5" fill="#404040"/>
<path d="M49.3021 15.7892C40.588 16.3338 40.3593 28.8756 40.3267 35.1113C40.2673 46.4408 41.6198 60.7637 55.5194 61.6324C58.7774 61.836 62.2357 62.228 65.2272 60.6663C67.9104 59.2655 70.456 57.0179 72.4886 54.7917C77.1974 49.6345 79.9459 42.6764 77.1009 35.8592C74.8292 30.4156 71.4615 26.3499 65.7258 24.5465C59.5766 22.6129 52.9722 21.9598 46.5596 21.9598C42.7858 21.9598 39.1426 22.4927 38.9398 26.8526C38.8907 27.909 38.5744 29.9898 39.2047 30.9352" stroke="white" stroke-width="3" stroke-linecap="round"/>
<path d="M34.1561 87.0316C34.1561 80.1219 39.2663 74.5013 44.6274 70.7948C47.4264 68.8597 49.6853 67.4083 53.0107 66.5564C57.8801 65.3091 62.598 65.154 67.5958 65.154C72.5721 65.154 80.3439 64.2277 83.6612 68.9873C85.2824 71.3134 86.0453 75.7673 86.0453 78.6171" stroke="white" stroke-width="3" stroke-linecap="round"/>
</svg>
